HIERARCHY
ROOT root
{
	OFFSET 0.000000 0.000000 0.000000
	CHANNELS 6 Xposition Yposition Zposition Zrotation Yrotation Xrotation
	JOINT lhip
	{
		OFFSET 0.058581 -0.082280 -0.017664
		CHANNELS 3 Zrotation Yrotation Xrotation
		JOINT lknee
		{
			OFFSET 0.043451 -0.386469 0.008037
			CHANNELS 3 Zrotation Yrotation Xrotation
			JOINT lankle
			{
				OFFSET -0.014790 -0.426874 -0.037428
				CHANNELS 3 Zrotation Yrotation Xrotation
				JOINT ltoe
				{
					OFFSET 0.041054 -0.060286 0.122042
					CHANNELS 3 Zrotation Yrotation Xrotation
					End Site
					{
						OFFSET 0.000000 0.000000 0.000000
					}
				}
			}
		}
	}
	JOINT rhip
	{
		OFFSET -0.060310 -0.090513 -0.013543
		CHANNELS 3 Zrotation Yrotation Xrotation
		JOINT rknee
		{
			OFFSET -0.043257 -0.383688 -0.004843
			CHANNELS 3 Zrotation Yrotation Xrotation
			JOINT rankle
			{
				OFFSET 0.019056 -0.420046 -0.034562
				CHANNELS 3 Zrotation Yrotation Xrotation
				JOINT rtoe
				{
					OFFSET -0.034840 -0.062106 0.130323
					CHANNELS 3 Zrotation Yrotation Xrotation
					End Site
					{
						OFFSET 0.000000 0.000000 0.000000
					}
				}
			}
		}
	}
	JOINT lowerback
	{
		OFFSET 0.004439 0.124404 -0.038385
		CHANNELS 3 Zrotation Yrotation Xrotation
		JOINT upperback
		{
			OFFSET 0.004488 0.137956 0.026820
			CHANNELS 3 Zrotation Yrotation Xrotation
			JOINT chest
			{
				OFFSET -0.002265 0.056032 0.002855
				CHANNELS 3 Zrotation Yrotation Xrotation
				JOINT lowerneck
				{
					OFFSET -0.013390 0.211636 -0.033468
					CHANNELS 3 Zrotation Yrotation Xrotation
					JOINT upperneck
					{
						OFFSET 0.010113 0.088937 0.050410
						CHANNELS 3 Zrotation Yrotation Xrotation
						End Site
						{
							OFFSET 0.000000 0.000000 0.000000
						}
					}
				}
				JOINT lclavicle
				{
					OFFSET 0.071702 0.114000 -0.018898
					CHANNELS 3 Zrotation Yrotation Xrotation
					JOINT lshoulder
					{
						OFFSET 0.122921 0.045205 -0.019046
						CHANNELS 3 Zrotation Yrotation Xrotation
						JOINT lelbow
						{
							OFFSET 0.255332 -0.015649 -0.022946
							CHANNELS 3 Zrotation Yrotation Xrotation
							JOINT lwrist
							{
								OFFSET 0.265709 0.012698 -0.007375
								CHANNELS 3 Zrotation Yrotation Xrotation
								End Site
								{
									OFFSET 0.000000 0.000000 0.000000
								}
							}
						}
					}
				}
				JOINT rclavicle
				{
					OFFSET -0.082954 0.112472 -0.023707
					CHANNELS 3 Zrotation Yrotation Xrotation
					JOINT rshoulder
					{
						OFFSET -0.113228 0.046853 -0.008472
						CHANNELS 3 Zrotation Yrotation Xrotation
						JOINT relbow
						{
							OFFSET -0.260127 -0.014369 -0.031269
							CHANNELS 3 Zrotation Yrotation Xrotation
							JOINT rwrist
							{
								OFFSET -0.269108 0.006794 -0.006027
								CHANNELS 3 Zrotation Yrotation Xrotation
								End Site
								{
									OFFSET 0.000000 0.000000 0.000000
								}
							}
						}
					}
				}
			}
		}
	}
}
MOTION
Frames: 16
Frame Time: 0.033333
0.582953 0.946833 1.043463 90.268553 -3.905008 84.966746 1.327052 1.009151 5.398877 -2.419875 -8.751475 0.733091 4.190847 1.490985 -23.029572 0.000000 -0.000000 0.000000 -5.924814 -4.781794 6.277056 -1.512728 -3.019977 2.193668 4.543886 -5.239166 -17.762511 0.000000 -0.000000 0.000000 -0.253097 2.890334 0.100376 -0.447146 -3.310273 8.444984 -3.822830 -1.216377 0.390255 2.468640 -4.889965 0.995328 2.111069 -15.332528 9.168923 -26.223784 0.289020 5.896850 -53.667381 -10.280084 10.044929 11.232610 -30.790678 6.239214 -17.439992 -14.970529 -9.261198 25.103392 0.514793 2.849703 66.433810 0.743728 7.490451 -26.817389 20.842522 -19.458301 18.297414 11.249551 -19.722886 
0.586424 0.947814 1.041440 90.786449 -3.602462 84.656141 1.576138 0.968861 5.700058 -2.410138 -9.009773 1.000131 4.173667 1.240784 -22.778297 0.000000 -0.000000 0.000000 -5.781701 -5.202468 7.264471 -1.447564 -2.716988 1.680874 4.506572 -5.660200 -17.898905 0.000000 -0.000000 0.000000 -0.268913 2.687509 0.189942 -0.635156 -3.501927 7.969269 -3.716339 -1.165243 0.639369 2.288929 -4.704360 0.373621 1.922514 -14.809304 9.779657 -25.940742 0.261393 6.007415 -54.147349 -10.733666 9.685330 11.344480 -31.187314 6.750271 -16.764289 -15.675952 -9.454131 25.594518 0.087354 3.133153 65.862311 0.751709 7.587497 -26.362982 22.767895 -16.442105 19.459538 11.003782 -15.504816 
0.589635 0.948442 1.040028 91.019173 -3.292004 84.402394 1.834116 0.760220 5.896147 -2.454097 -8.983900 1.406871 4.056939 1.265265 -22.494700 0.000000 -0.000000 0.000000 -5.666762 -5.567982 8.018550 -1.347387 -2.476001 1.318764 4.495134 -5.829442 -17.967810 0.000000 -0.000000 0.000000 -0.320938 2.705068 -0.076523 -0.668389 -3.656422 8.247895 -3.647334 -1.255679 0.798485 2.315974 -4.490057 -0.298721 1.750927 -14.472587 9.916221 -25.705596 0.456180 5.823736 -54.764946 -11.060573 9.716087 11.559727 -31.854513 7.015474 -16.041615 -15.947647 -9.738997 26.091233 -0.243098 3.224183 65.327431 0.871344 8.047264 -25.404857 24.636310 -12.658234 21.117905 10.221851 -10.362760 
0.592108 0.948999 1.040213 90.693132 -3.007856 84.256670 2.127899 0.631151 6.153458 -2.479249 -8.526424 1.558231 3.968679 1.172755 -22.000221 0.000000 -0.000000 0.000000 -5.585398 -5.429727 8.280901 -1.160064 -2.695162 1.417379 4.635905 -5.381515 -17.679400 0.000000 -0.000000 0.000000 -0.324877 2.843470 -0.314256 -0.716983 -3.480650 8.476012 -3.751793 -1.179903 0.709234 2.517914 -4.314572 -0.329866 1.970835 -14.503136 9.777031 -25.663155 0.557684 5.489982 -55.395984 -10.975700 10.048307 12.133128 -32.498591 6.723196 -15.486194 -15.661740 -10.316881 25.839889 -0.533335 3.182778 66.444249 0.887387 8.143158 -26.308771 25.002870 -13.261877 21.210805 9.905966 -11.859613 
0.593314 0.949301 1.041159 90.323970 -2.878207 84.276298 2.221794 0.624476 6.350719 -2.411068 -8.223149 1.385960 3.890661 1.158155 -21.753998 0.000000 -0.000000 0.000000 -5.577856 -5.306933 8.186883 -1.027084 -2.719655 1.604086 4.807947 -5.054623 -17.330799 0.000000 -0.000000 0.000000 -0.317975 2.858402 -0.675184 -0.750346 -3.351069 8.738876 -3.798812 -1.108714 0.628428 2.620901 -4.215498 -0.316988 2.041817 -14.239510 9.698905 -25.772391 0.665732 5.470632 -55.739012 -10.869394 10.163359 12.459630 -32.772514 6.507333 -15.096374 -15.589622 -10.471951 25.745569 -0.550610 3.276005 66.851137 1.183267 8.206035 -26.650563 25.035234 -13.579240 20.985847 10.005405 -12.271975 
0.594903 0.949746 1.043083 89.899456 -2.654918 84.329400 2.340427 0.697759 6.623445 -2.261087 -8.085281 1.078715 3.857817 1.246693 -21.639507 0.000000 -0.000000 0.000000 -5.537508 -5.330826 8.026543 -0.842794 -2.647384 1.837171 5.133187 -4.552918 -16.821526 0.000000 -0.000000 0.000000 -0.247820 2.757162 -1.039774 -0.741820 -3.272292 8.744228 -3.862624 -1.026643 0.615923 2.693570 -4.147581 -0.311414 1.879256 -14.193004 10.000931 -25.814884 1.096472 5.408429 -56.333197 -10.685240 10.371482 12.537941 -32.864744 6.700145 -15.175775 -15.675993 -10.774776 25.715019 -0.664853 3.294319 66.915051 1.525005 8.413731 -26.725182 25.439676 -13.531496 20.973196 10.113832 -12.353657 
0.595820 0.950218 1.045082 89.446998 -2.458947 84.381979 2.374729 0.714369 6.731027 -2.109271 -7.945471 1.009774 3.922085 1.527251 -21.563096 0.000000 -0.000000 0.000000 -5.513582 -5.378542 7.847705 -0.656314 -2.474576 1.974044 5.352003 -4.167310 -16.279744 0.000000 -0.000000 0.000000 -0.269278 2.752380 -1.413907 -0.671259 -3.211326 8.843932 -3.830762 -1.035901 0.650366 2.901873 -4.097077 -0.478383 1.673146 -13.936537 10.404051 -25.800644 1.305309 5.483986 -56.974707 -10.448057 10.641765 12.499622 -32.574082 7.091855 -15.083891 -16.338607 -11.144362 25.672130 -0.717092 3.216841 66.711388 1.904503 8.648068 -26.622585 26.106260 -13.398306 20.499096 10.440170 -12.333145 
0.595702 0.950941 1.046417 88.901753 -2.316078 84.532415 2.360892 0.665980 6.514260 -2.064249 -7.759261 1.270798 4.131576 1.971884 -21.661227 0.000000 -0.000000 0.000000 -5.470255 -5.246922 7.457846 -0.541753 -2.252700 2.219483 5.417519 -3.940402 -15.919119 0.000000 -0.000000 0.000000 -0.313168 2.801840 -1.581715 -0.612629 -3.116234 8.861808 -3.731540 -1.061943 0.601121 3.082696 -4.050497 -0.795556 1.637810 -13.598540 10.591611 -25.774773 1.390852 5.663750 -57.582594 -10.113619 10.823385 12.464526 -32.659585 7.212387 -15.184613 -15.918884 -11.364603 25.624369 -0.599286 3.216806 66.391489 2.203017 8.783975 -26.724319 27.063798 -13.516850 20.492408 10.692120 -12.549663 
0.595050 0.951716 1.046843 88.407805 -2.219531 84.566476 2.332158 0.718728 6.278822 -2.075586 -7.622153 1.809031 4.459532 2.298913 -22.078354 0.000000 -0.000000 0.000000 -5.407998 -5.107700 7.218383 -0.548756 -2.018488 2.371680 5.380220 -3.831871 -15.885228 0.000000 -0.000000 0.000000 -0.414741 2.827715 -1.425356 -0.551182 -3.097774 8.851387 -3.620353 -1.089153 0.531000 3.234792 -4.021312 -1.078418 1.753054 -13.526502 10.278767 -25.773168 1.419772 5.811343 -58.086475 -9.704264 10.911107 12.427099 -32.700288 7.477357 -15.697111 -15.396544 -11.321978 25.628080 -0.354764 3.210813 66.097453 2.524929 8.911932 -26.938827 27.977414 -13.856719 20.547080 10.851905 -12.669749 
0.593685 0.952785 1.045635 87.720077 -2.180318 84.536182 2.259216 0.779763 6.065124 -2.119165 -7.277595 2.399214 4.842341 2.684316 -22.755677 0.000000 -0.000000 0.000000 -5.347659 -4.770952 7.182830 -0.622314 -1.694258 2.197833 5.237881 -3.819286 -16.087470 0.000000 -0.000000 0.000000 -0.448907 2.840990 -1.027904 -0.586169 -3.085668 8.828153 -3.561621 -1.112699 0.537010 3.479184 -3.801339 -1.446989 1.787889 -13.320006 9.798034 -25.845688 1.288777 5.868776 -58.276403 -9.236811 10.947350 12.149732 -32.344336 7.818636 -16.051024 -15.532567 -11.421432 25.583260 0.063000 3.269556 65.775062 3.306350 9.192650 -26.882184 28.731242 -14.168090 19.922666 11.103704 -12.802513 
0.592582 0.953666 1.043856 87.177403 -2.187584 84.563886 2.159054 0.863420 5.918588 -2.148974 -6.975014 2.723380 5.113448 3.049223 -23.398463 0.000000 -0.000000 0.000000 -5.323966 -4.562043 7.169418 -0.716448 -1.386074 1.949042 5.129762 -3.833043 -16.445956 0.000000 -0.000000 0.000000 -0.427996 2.869071 -0.870082 -0.675642 -3.092805 8.918857 -3.595132 -1.107935 0.615400 3.688241 -3.682675 -1.569246 1.886003 -13.168370 9.530395 -25.848202 1.115181 5.792983 -58.272682 -8.922214 11.006805 11.857322 -31.682299 8.182019 -16.268185 -15.406244 -11.300448 25.576692 0.464142 3.293334 65.568761 3.980240 9.396836 -26.797909 29.073750 -14.265662 19.695999 11.238308 -12.818592 
0.591389 0.954637 1.041866 86.803614 -2.143065 84.633305 2.101157 0.895965 5.738695 -2.127825 -6.876041 2.951653 5.365586 3.331022 -24.113179 0.000000 -0.000000 0.000000 -5.263586 -4.458178 7.093152 -0.781847 -1.196630 1.727860 4.947658 -3.815432 -16.842743 0.000000 -0.000000 0.000000 -0.367998 2.882085 -0.786742 -0.714291 -3.156491 9.053688 -3.651270 -1.095103 0.687962 3.852481 -3.654694 -1.657515 1.880900 -13.157242 9.327929 -25.834893 0.822109 5.746284 -58.288646 -8.708257 11.052068 11.685826 -30.733780 8.435387 -16.561036 -15.250174 -10.996228 25.550116 0.810171 3.134736 65.526372 4.515664 9.520289 -26.897303 29.222067 -14.396721 19.703154 11.230072 -13.029313 
0.590139 0.955653 1.040206 86.446009 -2.118534 84.736002 2.059293 0.933657 5.527060 -2.183637 -6.643778 3.178244 5.565870 3.649802 -24.859917 0.000000 -0.000000 0.000000 -5.221216 -4.350676 6.912464 -0.843721 -1.008819 1.612077 4.768409 -3.811366 -17.093507 0.000000 -0.000000 0.000000 -0.280062 2.957678 -0.753451 -0.775262 -3.135563 9.154200 -3.684654 -1.137665 0.766755 4.016606 -3.563148 -1.769312 1.734848 -12.942080 9.233437 -25.808280 0.583652 5.714717 -58.331003 -8.583908 10.956439 11.637426 -29.715959 8.652542 -17.094115 -15.109990 -10.639340 25.489628 0.965417 3.009838 65.567353 5.020190 9.543199 -26.916917 29.240230 -14.514759 19.915253 11.280718 -13.087526 
0.589044 0.956681 1.039270 86.238701 -2.101592 84.957784 1.992908 1.065651 5.237799 -2.174543 -6.413534 3.249749 5.923254 3.939584 -25.417788 0.000000 -0.000000 0.000000 -5.202526 -4.377412 6.577480 -0.877917 -0.836625 1.575493 4.570947 -3.836547 -17.361516 0.000000 -0.000000 0.000000 -0.246847 2.994301 -0.806484 -0.775861 -3.120655 9.107986 -3.706723 -1.219383 0.762776 4.126524 -3.262256 -1.643445 1.466665 -12.560834 9.517711 -25.852455 0.611540 5.711170 -58.311189 -8.463060 10.836850 11.606070 -28.827220 8.898665 -17.551008 -14.951932 -10.600468 25.510880 0.985040 3.036753 65.621819 5.409965 9.663889 -26.960545 29.069860 -14.622436 19.546303 11.385925 -13.147710 
0.588021 0.957594 1.039032 86.174712 -2.057011 85.230291 1.970074 1.138643 4.911142 -2.137248 -5.952585 3.260367 6.266430 4.296612 -25.754275 0.000000 -0.000000 0.000000 -5.157414 -4.411860 6.143780 -0.876241 -0.522385 1.668831 4.314355 -4.091888 -17.558349 0.000000 -0.000000 0.000000 -0.299369 2.925502 -1.032840 -0.667928 -3.205637 9.060083 -3.686923 -1.360718 0.929465 4.187728 -2.631414 -1.603541 0.903667 -11.940504 9.848206 -25.840725 0.758648 5.762103 -58.353410 -8.472027 10.771502 11.591507 -28.086064 9.041723 -17.777170 -14.866706 -10.832083 25.577619 1.030793 3.274952 65.648752 5.952742 10.053901 -27.031741 28.598586 -14.630266 19.226956 11.504527 -13.210310 
0.587179 0.958425 1.039236 86.383577 -1.961892 85.420107 2.012427 1.155698 4.555670 -2.081633 -5.759744 3.384859 6.388559 4.507399 -26.074959 0.000000 -0.000000 0.000000 -5.033404 -4.347279 5.787116 -0.888081 -0.519297 1.883247 4.222689 -4.395705 -17.693417 0.000000 -0.000000 0.000000 -0.356206 2.762106 -1.121161 -0.575901 -3.329847 8.944377 -3.618502 -1.532672 1.223673 4.313995 -1.865308 -1.722687 0.492612 -11.219420 10.036982 -25.613569 0.999557 5.621438 -58.612654 -8.474457 10.749150 11.678129 -27.664896 9.038823 -18.154598 -14.782184 -10.934911 25.565708 0.936531 3.357712 65.745488 6.400745 10.469178 -26.934712 28.102494 -14.414434 19.806619 11.269246 -13.170813 
